<svg xmlns="http://www.w3.org/2000/svg" viewBox="0 0 91.55 93.74"><defs><style>.cls-1{fill:#cecece;}.cls-2{fill:#e2e2e2;}.cls-3{fill:#787e7e;}.cls-4{fill:#111224;}.cls-5{fill:#efa14d;}.cls-6{fill:#95b7c3;}.cls-7{fill:#dff3f4;}.cls-8{fill:#fff;}</style></defs><title>Asset 5</title><g id="Layer_2" data-name="Layer 2"><g id="Layer_1-2" data-name="Layer 1"><path class="cls-1" d="M85.87,30.81A49.34,49.34,0,0,1,89,38.4a42.23,42.23,0,0,1,1.72,8.74A37.54,37.54,0,0,1,91,51.84,42.59,42.59,0,0,1,87.9,66.93c-.28.67-.53,1.35-.84,2-.2.42-.16.62.3.81a6.47,6.47,0,0,1,4.06,5,6.82,6.82,0,0,1-11.65,6c-.34-.35-.53-.26-.81,0A40.45,40.45,0,0,1,74.21,85,43.59,43.59,0,0,1,64.15,90.7a41.35,41.35,0,0,1-8.26,2.38,44.68,44.68,0,0,1-5.44.61,43.73,43.73,0,0,1-4.65,0,41.1,41.1,0,0,1-9-1.5,42,42,0,0,1-12.59-5.92,42.44,42.44,0,0,1-12.3-13,41.88,41.88,0,0,1-5.41-14,40.15,40.15,0,0,1-.73-6.06c0-.87-.08-1.74-.1-2.61l.08,0c.25,0,.51,0,.76,0a.45.45,0,0,0,.5-.47c0-.28-.22-.4-.48-.41s-.51,0-.76,0h0A40.82,40.82,0,0,1,8.07,37,43,43,0,0,1,22.75,17a42,42,0,0,1,8-4.73c.36-.16.45-.32.35-.71A9.1,9.1,0,0,1,32.39,4.1,9.22,9.22,0,0,1,45,1.43a9.06,9.06,0,0,1,4.32,7c-.77-.06-1.53.12-2.28.1a31.23,31.23,0,0,0-6.2.58,41.49,41.49,0,0,0-9.08,2.68c-.35.15-.51.35-.35.74A9.08,9.08,0,0,0,34.91,17,9.2,9.2,0,0,0,43.13,18a10.27,10.27,0,0,0,4.55-3.35l2.33,0c.28,0,.52-.09.52-.42s-.22-.41-.51-.42l-1.7,0a1.12,1.12,0,0,1,.06-.31,10.24,10.24,0,0,0,1-4.91A40.55,40.55,0,0,1,65.6,12.13,43.23,43.23,0,0,1,80.32,22.88a7.39,7.39,0,0,1,1.35,1.75H75.79c-.31,0-.59.07-.58.42s.28.44.59.44h.83c2,0,4-.06,5.93.05.19.61.7,1,1,1.53.47.8,1,1.59,1.49,2.37.27.41.2.56-.29.55-1,0-2,0-3,0-.3,0-.71-.08-.71.4s.38.38.67.38c1.31,0,2.63.07,3.94-.05ZM54.17,25c-.07-.46.28-.28.46-.28,1.53,0,3.06,0,4.59,0,.59,0,.78-.21.77-.79,0-1.47,0-2.93,0-4.4,0-.62-.2-.81-.81-.8-2.32,0-4.63,0-7,0-.77,0-.81,0-.81.85q0,3.67,0,7.33c-.7.08-1.39-.14-2.09-.13-1.1,0-2.2,0-3.31.1a29.11,29.11,0,0,0-5.69.94,28.26,28.26,0,0,0-6,2.27,32.6,32.6,0,0,0-4,2.4,30.5,30.5,0,0,0-5.72,5.22,12.83,12.83,0,0,0-1.92,2.59l-2.74,0c-.78,0-.82.05-.83.84q0,2.9,0,5.8c-.44,1.19-.78,2.42-1.12,3.64a29.25,29.25,0,0,0-.9,6.41,27.89,27.89,0,0,0,.24,5.21,29,29,0,0,0,1,4.78A39.92,39.92,0,0,0,20,71.52l-2.28,0H15.9c-.26,0-.48.11-.49.39s.2.44.49.46.34,0,.51,0l4.06,0a30.17,30.17,0,0,0,5.18,7.29,31.35,31.35,0,0,0,13.73,8.43A31.48,31.48,0,0,0,51,89.33a33.41,33.41,0,0,0,5.87-1.07,30.68,30.68,0,0,0,6.57-2.72,32.22,32.22,0,0,0,6.68-4.94,30.81,30.81,0,0,0,5.51-7.13,31.52,31.52,0,0,0,2.89-7.05c.18-.61.11-1.33.67-1.81,2,1.37,2.39,1.37,4.47,0a1.83,1.83,0,0,1,2.2.07c.27.2.55.44.82.09s0-.62-.31-.83a2.76,2.76,0,0,0-3.57.21,1.91,1.91,0,0,1-2.75,0,9.93,9.93,0,0,0-.83-.58c.08-1,.22-2.06.31-3.1a30.44,30.44,0,0,0-.1-5.72,32.38,32.38,0,0,0-.82-4.43,33.18,33.18,0,0,0-2.36-6.36c-.08-1.48,0-3,0-4.45.07-.05.09-.1,0-.13a7.7,7.7,0,0,0-3.69-5.8,10.08,10.08,0,0,0-4.3-1.44c0-.07-.07-.08-.13,0a1.8,1.8,0,0,1-.75,0,.44.44,0,0,0-.41-.13,4.25,4.25,0,0,1-2.78-.79,29.83,29.83,0,0,0-9.31-3.64,1,1,0,0,1-.71-.44,8.25,8.25,0,0,1,0-1.9Q54.28,25.1,54.17,25ZM78,75.86a6.28,6.28,0,0,0,.95,3.7c.5.77.54.76,1.14.05a60.24,60.24,0,0,0,3.79-4.93c1-1.45,1.78-3,2.66-4.54.25-.43.17-.66-.36-.77a8.4,8.4,0,0,0-1.52-.12A6.69,6.69,0,0,0,78,75.86Zm-10-60c0-.29-.15-.4-.59-.46A2.48,2.48,0,0,1,65.08,13c0-.28-.08-.52-.41-.54s-.4.22-.44.5a2.47,2.47,0,0,1-2.42,2.41c-.29,0-.51.13-.49.46s.23.35.49.39a2.48,2.48,0,0,1,2.42,2.42c0,.28.11.52.45.5s.36-.22.4-.48a2.49,2.49,0,0,1,2.46-2.44C67.8,16.19,68,16.09,68,15.84ZM16.1,61.14c-.06-.31-.27-.4-.55-.45a2.42,2.42,0,0,1-2.38-2.36c0-.28-.13-.53-.43-.54s-.44.23-.48.55A2.43,2.43,0,0,1,9.88,60.7c-.27,0-.52.13-.53.44s.21.41.5.46A2.46,2.46,0,0,1,12.27,64c0,.28.13.51.45.51s.41-.24.46-.51a2.44,2.44,0,0,1,2.42-2.4C15.88,61.55,16.06,61.43,16.1,61.14ZM34.47,24.78a1.62,1.62,0,0,1,1.17.42c.26.22.53.34.77,0s-.05-.53-.27-.71a2.66,2.66,0,0,0-3.42,0c-1.4,1.06-1.8,1-3.23-.07a2.64,2.64,0,0,0-3.21,0,2.1,2.1,0,0,1-3,.31.44.44,0,0,0-.67.09c-.15.25,0,.43.2.6a2.77,2.77,0,0,0,3.52.08c1.18-1,1.93-1,3.09,0a2.77,2.77,0,0,0,3.47,0A2.24,2.24,0,0,1,34.47,24.78ZM12.19,46.72H16.4c.32,0,.7,0,.72-.43s-.37-.43-.69-.43H7.89c-.32,0-.71,0-.69.43s.4.43.72.43Zm72.07-1.36a2,2,0,1,0-1.94-2A2,2,0,0,0,84.26,45.36ZM18.66,30.58c0-.09,0-.17,0-.26,0-.3,0-.59-.4-.6s-.45.26-.44.56,0,.51,0,.76a.39.39,0,0,0,.4.41.4.4,0,0,0,.44-.44C18.66,30.88,18.66,30.73,18.66,30.58Zm1,1h-.45a.4.4,0,0,0-.45.43.38.38,0,0,0,.4.41,8.35,8.35,0,0,0,1,0,.38.38,0,0,0,.39-.42.39.39,0,0,0-.4-.41C20,31.56,19.81,31.57,19.66,31.57Zm-2.76,0h-.38c-.29,0-.52.08-.53.41s.22.43.51.44h.77a.43.43,0,0,0,.48-.41.41.41,0,0,0-.45-.43Zm1.76,1.81h0c0-.11,0-.21,0-.32,0-.29-.08-.53-.39-.55s-.46.24-.46.55,0,.55,0,.83a.38.38,0,0,0,.44.36.37.37,0,0,0,.38-.36A4.63,4.63,0,0,0,18.65,33.38Z"/><path class="cls-2" d="M47.69,14.66A10.27,10.27,0,0,1,43.13,18,9.2,9.2,0,0,1,34.91,17a9.08,9.08,0,0,1-3.5-4.43c-.16-.39,0-.6.35-.74a41.49,41.49,0,0,1,9.08-2.68A31.23,31.23,0,0,1,47,8.53c.76,0,1.52-.16,2.28-.1a.42.42,0,0,1,0,.1,10.24,10.24,0,0,1-1,4.91,1.12,1.12,0,0,0-.06.31l-2.67,0c-.3,0-.6,0-.61.39s.3.44.62.45Z"/><path class="cls-2" d="M0,72.34a3.54,3.54,0,0,1,3.56-3.58A3.57,3.57,0,0,1,7.2,72.49,3.65,3.65,0,0,1,3.59,76,3.61,3.61,0,0,1,0,72.34Z"/><path class="cls-3" d="M82.55,25.56c-2-.12-4,0-5.93-.05h-.83c-.31,0-.59-.09-.59-.44s.27-.43.58-.42h8.73c.32,0,.62,0,.62.44s-.3.45-.62.46Z"/><path class="cls-3" d="M85.87,30.81l-.19-.08c-.18-.71-.18-.71.57-.72h4.21c.29,0,.66,0,.64.41s-.36.35-.64.35Z"/><path class="cls-3" d="M5.73,50.54l-.08,0H2.26c-.35,0-.77,0-.77-.44s.4-.42.73-.42H5.75Z"/><path class="cls-2" d="M20,71.52a39.92,39.92,0,0,1-1.67-4.46,29,29,0,0,1-1-4.78A27.89,27.89,0,0,1,17,57.07a29.25,29.25,0,0,1,.9-6.41c.34-1.23.67-2.45,1.12-3.64,0,.25,0,.51,0,.76q0,5.46,0,10.92c0,.85,0,.89.91.89,2.75,0,5.49,0,8.24,0,.56,0,.76.1.75.71,0,2.58,0,5.15,0,7.73a7.28,7.28,0,0,0,2.64,5.72,9.64,9.64,0,0,0,11.58.57A7.37,7.37,0,0,0,46.48,69a17.82,17.82,0,0,0,0-2.42c0-.34.1-.44.43-.43a10.59,10.59,0,0,0,1.53,0c.5,0,.59.15.58.61,0,3.77,0,7.54,0,11.31q0,1.53,0,3.07c0,.24,0,.49.27.59s.48-.06.58-.33l1.49-.05,5,0c.16.23.34.46.67.33s.26-.45.26-.72q0-7,0-13.92c0-.91,0-.91.89-.91a13.72,13.72,0,0,0,3,0c1-.22,1.47-1.28,2.2-1.94a1.23,1.23,0,0,1,.9-.35c2,0,1.71.24,1.68-1.68,0-.59.18-.69.71-.68,3.34,0,6.68,0,10,0,.53,0,.73-.18.71-.7,0-1,0-2,0-2.94,0-.42-.17-.67-.6-.61s-.58-.15-.58-.6c0-3.32,0-6.64,0-10,0-.91,0-1.83,0-2.74a33.18,33.18,0,0,1,2.36,6.36,32.38,32.38,0,0,1,.82,4.43,30.44,30.44,0,0,1,.1,5.72c-.09,1-.23,2.06-.31,3.1a3,3,0,0,0-3.12.7,1.77,1.77,0,0,1-2.39.06c-.27-.2-.54-.44-.81-.06s0,.58.3.79a2.77,2.77,0,0,0,3.57-.18,1.78,1.78,0,0,1,2.42-.24c-.56.47-.5,1.2-.67,1.81a31.52,31.52,0,0,1-2.89,7.05,30.81,30.81,0,0,1-5.51,7.13,32.22,32.22,0,0,1-6.68,4.94,30.68,30.68,0,0,1-6.57,2.72A33.41,33.41,0,0,1,51,89.33a31.48,31.48,0,0,1-11.64-1.18,31.35,31.35,0,0,1-13.73-8.43,30.17,30.17,0,0,1-5.18-7.29l1.66,0h2.68c.28,0,.53-.08.53-.42s-.23-.42-.52-.42h-.57Zm48.3,1.37h2.1c.29,0,.59,0,.6-.41s-.26-.43-.57-.43H66.06c-.3,0-.59,0-.6.4s.32.43.63.43ZM46.08,86.71h0c0-.08,0-.17,0-.25,0-.29,0-.59-.4-.6s-.43.27-.42.57,0,.34,0,.51,0,.65.4.66.43-.33.43-.64C46.08,86.88,46.08,86.8,46.08,86.71Zm1-1h.32c.28,0,.53-.06.55-.38s-.25-.44-.56-.44h-.7c-.27,0-.48.11-.49.38s.2.44.5.43Zm-1-1.82c0-.11,0-.21,0-.32,0-.29-.07-.54-.4-.54s-.44.26-.43.57,0,.47,0,.7.1.47.39.48.41-.18.43-.44S46.07,84.08,46.07,83.93Zm-1.82,1h-.38c-.27,0-.48.12-.49.39s.2.44.5.43h.83a.37.37,0,0,0,.42-.38c0-.29-.16-.42-.43-.43Z"/><path class="cls-4" d="M49.91,81.4c-.1.28-.28.44-.58.33s-.27-.35-.27-.59q0-1.53,0-3.07c0-3.77,0-7.54,0-11.31,0-.46-.08-.66-.58-.61a10.59,10.59,0,0,1-1.53,0c-.33,0-.44.08-.43.43a17.82,17.82,0,0,1,0,2.42,7.37,7.37,0,0,1-3.32,5.3,9.64,9.64,0,0,1-11.58-.57A7.28,7.28,0,0,1,29,68c0-2.58,0-5.15,0-7.73,0-.62-.19-.72-.75-.71-2.75,0-5.49,0-8.24,0-.87,0-.91,0-.91-.89q0-5.46,0-10.92c0-.25,0-.51,0-.76q0-2.9,0-5.8c0-.79,0-.84.83-.84l2.74,0c2,0,3.92,0,5.87,0,.38,0,.44-.14.44-.48a7.45,7.45,0,0,1,3.9-6.47A9.6,9.6,0,0,1,38,32.11h12.9c.26,0,.55.1.54-.37,0-1.6,0-3.19,0-4.79q0-3.67,0-7.33c0-.8,0-.85.81-.85,2.32,0,4.64,0,7,0,.61,0,.83.18.81.8,0,1.47,0,2.93,0,4.4,0,.58-.18.8-.77.79-1.53,0-3.06,0-4.59,0-.17,0-.53-.17-.46.28v.15a8.25,8.25,0,0,0,0,1.9c0,1.55,0,3.11-.05,4.66,0,.45.27.39.54.39h5.69l7,0a1.8,1.8,0,0,0,.75,0l.13,0a10.08,10.08,0,0,1,4.3,1.44,7.7,7.7,0,0,1,3.69,5.8v.13c0,1.48-.06,3,0,4.45,0,.91,0,1.83,0,2.74,0,3.32,0,6.64,0,10,0,.46.07.67.58.6s.61.19.6.61c0,1,0,2,0,2.94,0,.52-.19.71-.71.7-3.34,0-6.68,0-10,0-.54,0-.72.09-.71.68,0,1.92.27,1.68-1.68,1.68a1.23,1.23,0,0,0-.9.35c-.73.66-1.22,1.71-2.2,1.94a13.72,13.72,0,0,1-3,0c-.89,0-.89,0-.89.91q0,7,0,13.92c0,.27.08.58-.26.72s-.5-.1-.67-.33c0-.66,0-1.32,0-2q0-6.28,0-12.56c0-.29.12-.67-.42-.66-1.53,0-3.06,0-4.59,0l-.57,0c-.88,0-.88,0-.88.87Q49.91,74.23,49.91,81.4ZM54.69,33c-.38-.08-.6,0-.56.46s0,.75,0,1.13c.06,2-.39,1.69,1.6,1.69a.61.61,0,0,1,.53.37c0,1,0,1.91,0,2.87,0,.33.34.49.23.81a5.75,5.75,0,0,0-.2,2.21c0,.6-.24.77-.8.77-1.78,0-3.57,0-5.35,0-.6,0-.85-.2-.84-.81,0-.87,0-1.74,0-2.61,0-.64,0-1.27,0-1.91,0-1.89-.18-1.68,1.61-1.66.44,0,.53-.16.52-.55,0-.7,0-1.41,0-2.11,0-.52-.11-.68-.66-.68-2.72,0-5.45,0-8.17,0h-.71c2.85,1.57,4.55,3.7,4.68,6.86q0,8.17,0,16.35c0,1,0,1,1.06,1H74.38c.88,0,.85,0,.95-.85a15.2,15.2,0,0,0,.06-1.72q0-4.21,0-8.43c0-2.13,0-4.26,0-6.38a5.72,5.72,0,0,0-.16-1.33,7.3,7.3,0,0,0-6.5-5.4c-4-.33-8-.1-12.05-.1ZM45.61,48.74c0-.38,0-.76,0-1.13s-.1-.4-.36-.21l-1,.74L41.52,50c1.38,1,2.69,1.91,4.09,2.77ZM37.73,61.5c-2.4,0-4.81,0-7.21,0-.61,0-.73.19-.72.75,0,1.94,0,3.87,0,5.81A6.4,6.4,0,0,0,32,72.91a8.7,8.7,0,0,0,9.87,1.2,6.65,6.65,0,0,0,3.84-6.34c0-1.89,0-3.79,0-5.68,0-.47-.11-.62-.6-.61C42.63,61.51,40.18,61.5,37.73,61.5ZM21,41.23c.22.18.28.24.35.29q7.6,5.18,15.19,10.36a.54.54,0,0,0,.73,0q4-2.77,8.06-5.52a.76.76,0,0,0,.38-.73c0-1,0-2.09,0-3.13s0-1.19-1.16-1.22l-.77,0H21Zm.11,17.52h4.65c6.43,0,12.85,0,19.28,0,.55,0,.67-.16.65-.68,0-1.23,0-2.47,0-3.7a.71.71,0,0,0-.33-.69q-2.14-1.43-4.26-2.9a.54.54,0,0,0-.73,0c-1,.7-2,1.36-3,2.06a.73.73,0,0,1-1,0c-1-.68-1.94-1.3-2.89-2a.69.69,0,0,0-.95,0c-3.67,2.51-7.35,5-11,7.5C21.35,58.44,21.13,58.48,21.07,58.75ZM20,41.67V58.33L32.2,50Zm41.52,19c4.43,0,8.86,0,13.29,0,.57,0,1.3.26,1.66-.13s0-1.1.12-1.67-.19-.76-.78-.76q-14.21,0-28.43,0c-.13,0-.26,0-.38,0-.34,0-.45.13-.43.45a10,10,0,0,1,0,1.4c-.06.59.18.71.72.7C52,60.64,56.74,60.65,61.49,60.65Zm-5.81-41c-.87,0-1.75,0-2.62,0-.6,0-.78.11-.78.75,0,5.3,0,10.6,0,15.91,0,.83-.06.88-.86.89a7.85,7.85,0,0,1-.83,0c-.38,0-.47.13-.46.48q0,2.14,0,4.28c0,.36.1.47.47.47,1.43,0,2.85,0,4.28,0,.43,0,.48-.17.48-.52,0-1.15,0-2.3,0-3.45s0-1.24-1.27-1.25c-.78,0-.83-.05-.83-.84q0-5.81,0-11.63c0-.81.06-.88.87-.88,1.49,0,3,0,4.47,0,.33,0,.5,0,.49-.44,0-1.09,0-2.17,0-3.26,0-.32,0-.52-.44-.5C57.68,19.67,56.68,19.65,55.68,19.65Zm.19,41.86v0c-2.9,0-5.79,0-8.69,0-.65,0-.66.29-.65.77s0,.78.65.77q8.62-.06,17.24,0c.64,0,.65-.29.66-.77s-.08-.72-.65-.71C61.57,61.52,58.72,61.51,55.86,61.51Zm6.49,2.36H47c-.14,0-.37,0-.39.13a3.16,3.16,0,0,0,0,1.14c.09.34.48.18.73.18,4.17,0,8.34-.08,12.51,0A2.92,2.92,0,0,0,62.36,63.87Zm-24.64-3.2c2.45,0,4.89,0,7.34,0,.44,0,.65-.06.65-.58s-.22-.54-.62-.54q-7.34,0-14.67,0c-.44,0-.64.07-.65.58s.3.54.68.54Z"/><path class="cls-2" d="M51.38,27c0,1.6,0,3.19,0,4.79,0,.48-.28.37-.54.37H38a9.6,9.6,0,0,0-5.12,1.32A7.45,7.45,0,0,0,29,39.91c0,.34-.06.48-.44.48-2,0-3.92,0-5.87,0a12.83,12.83,0,0,1,1.92-2.59,30.5,30.5,0,0,1,5.72-5.22,32.6,32.6,0,0,1,4-2.4,28.26,28.26,0,0,1,6-2.27A29.11,29.11,0,0,1,46,26.93c1.1-.06,2.2-.09,3.31-.1C50,26.81,50.68,27,51.38,27Z"/><path class="cls-2" d="M78,75.86a6.69,6.69,0,0,1,6.67-6.61,8.4,8.4,0,0,1,1.52.12c.53.11.61.34.36.77-.88,1.52-1.66,3.1-2.66,4.54a60.24,60.24,0,0,1-3.79,4.93c-.6.71-.64.72-1.14-.05A6.28,6.28,0,0,1,78,75.86Z"/><path class="cls-2" d="M67.37,32.07l-7,0H54.66c-.27,0-.55.06-.54-.39,0-1.55,0-3.11.05-4.66a1,1,0,0,0,.71.44,29.83,29.83,0,0,1,9.31,3.64,4.25,4.25,0,0,0,2.78.79A.44.44,0,0,1,67.37,32.07Z"/><path class="cls-4" d="M68,15.84c0,.25-.2.34-.46.39a2.49,2.49,0,0,0-2.46,2.44c0,.26-.11.47-.4.48s-.4-.23-.45-.5a2.48,2.48,0,0,0-2.42-2.42c-.26,0-.47-.1-.49-.39s.2-.41.49-.46A2.47,2.47,0,0,0,64.22,13c0-.28.11-.52.44-.5s.37.26.41.54a2.48,2.48,0,0,0,2.33,2.37C67.85,15.44,68,15.55,68,15.84Zm-3.35-1.31a4.1,4.1,0,0,1-1.27,1.27,4.5,4.5,0,0,1,1.26,1.27,5.1,5.1,0,0,1,1.3-1.28A3.87,3.87,0,0,1,64.65,14.53Z"/><path class="cls-3" d="M79.21,64.62a1.78,1.78,0,0,0-2.42.24,2.77,2.77,0,0,1-3.57.18c-.26-.2-.55-.43-.3-.79s.54-.13.81.06a1.77,1.77,0,0,0,2.39-.06,3,3,0,0,1,3.12-.7,10,10,0,0,1,.83.58,1.91,1.91,0,0,0,2.75,0,2.76,2.76,0,0,1,3.57-.21c.27.21.61.45.31.83s-.55.11-.82-.09a1.83,1.83,0,0,0-2.2-.07C81.6,66,81.22,66,79.21,64.62Z"/><path class="cls-3" d="M16.1,61.14c0,.29-.22.41-.51.46A2.44,2.44,0,0,0,13.17,64c0,.28-.14.51-.46.51s-.4-.23-.45-.51A2.46,2.46,0,0,0,9.85,61.6c-.29,0-.51-.15-.5-.46s.25-.4.53-.44a2.43,2.43,0,0,0,2.39-2.36c0-.31.15-.56.48-.55s.39.27.43.54a2.42,2.42,0,0,0,2.38,2.36C15.83,60.74,16,60.83,16.1,61.14Zm-4.57,0a7.31,7.31,0,0,1,1.19,1.2,5.24,5.24,0,0,1,1.2-1.2A4.55,4.55,0,0,1,12.73,60c-.2.23-.36.45-.56.64S11.76,61,11.53,61.15Z"/><path class="cls-5" d="M34.47,24.78a2.24,2.24,0,0,0-1.59.71,2.77,2.77,0,0,1-3.47,0c-1.15-1-1.91-1-3.09,0a2.77,2.77,0,0,1-3.52-.08c-.18-.17-.35-.36-.2-.6a.44.44,0,0,1,.67-.09,2.1,2.1,0,0,0,3-.31,2.64,2.64,0,0,1,3.21,0c1.43,1.12,1.82,1.13,3.23.07a2.66,2.66,0,0,1,3.42,0c.22.18.56.36.27.71s-.51.18-.77,0A1.62,1.62,0,0,0,34.47,24.78Z"/><path class="cls-3" d="M12.19,46.72H7.92c-.32,0-.7,0-.72-.43s.37-.43.69-.43h8.54c.32,0,.71,0,.69.43s-.4.43-.72.43Z"/><path class="cls-3" d="M20,71.52l4.28,0h.57c.29,0,.52.09.52.42s-.25.42-.53.42H22.12l-1.66,0-4.06,0c-.17,0-.34,0-.51,0s-.51-.14-.49-.46.23-.39.49-.39h1.78Z"/><path class="cls-4" d="M84.26,45.36a2,2,0,1,1,0-3.93,2,2,0,1,1,0,3.93Zm0-.83a1.13,1.13,0,1,0-1.11-1.15A1.12,1.12,0,0,0,84.27,44.53Z"/><path class="cls-4" d="M47.69,14.66l-2,0c-.32,0-.64,0-.62-.45s.32-.39.61-.39l2.67,0,1.7,0c.29,0,.51.09.51.42s-.24.41-.52.42Z"/><path class="cls-4" d="M18.66,30.58c0,.15,0,.3,0,.45a.4.4,0,0,1-.44.44.39.39,0,0,1-.4-.41c0-.25,0-.51,0-.76s.08-.58.44-.56.41.3.4.6C18.66,30.41,18.66,30.5,18.66,30.58Z"/><path class="cls-4" d="M19.66,31.57c.15,0,.3,0,.45,0a.39.39,0,0,1,.4.41.38.38,0,0,1-.39.42,8.35,8.35,0,0,1-1,0,.38.38,0,0,1-.4-.41.4.4,0,0,1,.45-.43h.45Z"/><path class="cls-4" d="M16.9,31.57h.38a.41.41,0,0,1,.45.43.43.43,0,0,1-.48.41h-.77c-.28,0-.52-.11-.51-.44s.25-.41.53-.41h.38Z"/><path class="cls-4" d="M18.65,33.38a4.63,4.63,0,0,1,0,.51.37.37,0,0,1-.38.36.38.38,0,0,1-.44-.36c0-.27,0-.55,0-.83s.1-.57.46-.55.4.27.39.55c0,.11,0,.21,0,.32Z"/><path class="cls-6" d="M5.73,50.54l0-.82c.25,0,.51,0,.76,0s.48.12.48.41a.45.45,0,0,1-.5.47C6.23,50.58,6,50.56,5.73,50.54Z"/><path class="cls-7" d="M76.25,39.5v-.13C76.34,39.4,76.32,39.44,76.25,39.5Z"/><path class="cls-7" d="M54.17,25.17V25Q54.28,25.1,54.17,25.17Z"/><path class="cls-7" d="M68.24,32.12l-.13,0C68.17,32,68.21,32,68.24,32.12Z"/><path class="cls-3" d="M51.37,66.21c1.53,0,3.06,0,4.59,0,.54,0,.42.37.42.66q0,6.28,0,12.56c0,.66,0,1.32,0,2l-5,0c0-.19,0-.38,0-.57Q51.37,73.5,51.37,66.21Z"/><path class="cls-8" d="M51.37,66.21q0,7.28,0,14.56c0,.19,0,.38,0,.57l-1.49.05q0-7.17,0-14.35c0-.88,0-.88.88-.87Z"/><path class="cls-4" d="M68.26,72.89H66.1c-.32,0-.64,0-.63-.43s.3-.4.6-.4h4.33c.3,0,.58.05.57.43s-.31.4-.6.41Z"/><path class="cls-4" d="M46.08,86.71c0,.08,0,.17,0,.25,0,.31,0,.65-.43.64s-.41-.35-.4-.66,0-.34,0-.51.05-.58.42-.57.41.3.4.6c0,.08,0,.17,0,.25Z"/><path class="cls-4" d="M47.06,85.75h-.38c-.3,0-.52-.12-.5-.43s.22-.39.49-.38h.7c.31,0,.58.07.56.44s-.27.39-.55.38Z"/><path class="cls-4" d="M46.07,83.93c0,.15,0,.3,0,.45s-.14.46-.43.44-.39-.21-.39-.48,0-.47,0-.7.07-.58.43-.57.41.26.4.54C46.07,83.72,46.07,83.82,46.07,83.93Z"/><path class="cls-4" d="M44.26,84.93h.44c.27,0,.45.14.43.43a.37.37,0,0,1-.42.38h-.83c-.3,0-.51-.12-.5-.43s.21-.4.49-.39h.38Z"/><path class="cls-3" d="M49.25,39.88c0,.87,0,1.74,0,2.61,0,.61.24.82.84.81,1.78,0,3.57,0,5.35,0,.56,0,.83-.16.8-.77a5.75,5.75,0,0,1,.2-2.21c.11-.32-.25-.48-.23-.81.06-1,0-1.91,0-2.87l.87.17c.42.09.54.32.37.75-.22.58-.35,1.18-.56,1.76s-.06.54.39.54c1.55,0,3.11,0,4.66,0l13.35,0c0,2.13,0,4.26,0,6.38q0,4.21,0,8.43a15.2,15.2,0,0,1-.06,1.72c-.1.85-.07.85-.95.85H47.62c-1,0-1.06,0-1.06-1q0-8.17,0-16.35Z"/><path class="cls-8" d="M37.73,61.5c2.45,0,4.89,0,7.34,0,.49,0,.6.14.6.61,0,1.89,0,3.79,0,5.68a6.65,6.65,0,0,1-3.84,6.34A8.7,8.7,0,0,1,32,72.91,6.4,6.4,0,0,1,29.81,68c0-1.94,0-3.87,0-5.81,0-.56.11-.76.72-.75C32.92,61.52,35.33,61.5,37.73,61.5Z"/><path class="cls-5" d="M21,41.23H43.72l.77,0c1.16,0,1.16,0,1.16,1.22s0,2.09,0,3.13a.76.76,0,0,1-.38.73q-4,2.75-8.06,5.52a.54.54,0,0,1-.73,0Q28.91,46.68,21.3,41.51C21.23,41.47,21.17,41.41,21,41.23Z"/><path class="cls-5" d="M21.07,58.75c.06-.28.28-.32.42-.41,3.67-2.5,7.36-5,11-7.5a.69.69,0,0,1,.95,0c.95.68,1.94,1.31,2.89,2a.73.73,0,0,0,1,0c1-.7,2-1.36,3-2.06a.54.54,0,0,1,.73,0q2.11,1.47,4.26,2.9a.71.71,0,0,1,.33.69c0,1.23,0,2.47,0,3.7,0,.51-.1.68-.65.68-6.43,0-12.85,0-19.28,0Z"/><path class="cls-8" d="M75.36,39.83,62,39.85c-1.55,0-3.11,0-4.66,0-.45,0-.56-.1-.39-.54s.35-1.18.56-1.76c.16-.43,0-.65-.37-.75l-.87-.17a.61.61,0,0,0-.53-.37L56.65,33c4,0,8-.22,12.05.1a7.3,7.3,0,0,1,6.5,5.4A5.72,5.72,0,0,1,75.36,39.83Z"/><path class="cls-5" d="M20,41.67,32.2,50,20,58.33Z"/><path class="cls-3" d="M61.49,60.65c-4.75,0-9.5,0-14.24,0-.54,0-.78-.12-.72-.7a10,10,0,0,0,0-1.4c0-.32.09-.49.43-.45.13,0,.26,0,.38,0q14.21,0,28.43,0c.6,0,.87.12.78.76s.23,1.29-.12,1.67-1.09.13-1.66.13C70.35,60.66,65.92,60.65,61.49,60.65Zm13-1.78a.47.47,0,0,0-.51.51.48.48,0,0,0,.53.5.51.51,0,0,0,0-1Zm-26,1c.32,0,.52-.22.52-.53a.47.47,0,0,0-.54-.49.44.44,0,0,0-.47.48A.51.51,0,0,0,48.54,59.89Zm13,0a.51.51,0,0,0,.48-.56.44.44,0,0,0-.49-.46.47.47,0,0,0-.52.51C61,59.69,61.25,59.85,61.55,59.89Z"/><path class="cls-5" d="M55.68,19.65c1,0,2,0,3,0,.41,0,.44.19.44.5,0,1.09,0,2.17,0,3.26,0,.39-.16.45-.49.44-1.49,0-3,0-4.47,0-.81,0-.87.06-.87.88q0,5.81,0,11.63c0,.79,0,.83.83.84,1.27,0,1.27,0,1.27,1.25s0,2.3,0,3.45c0,.36,0,.53-.48.52-1.43,0-2.85,0-4.28,0-.37,0-.47-.11-.47-.47q0-2.14,0-4.28c0-.35.08-.52.46-.48a7.85,7.85,0,0,0,.83,0c.8,0,.86-.06.86-.89,0-5.3,0-10.6,0-15.91,0-.64.18-.79.78-.75C53.93,19.69,54.81,19.65,55.68,19.65Zm-3,20.76a.49.49,0,0,0,.5-.53.48.48,0,0,0-.51-.53.49.49,0,0,0-.55.56A.5.5,0,0,0,52.7,40.41Z"/><path class="cls-8" d="M49.25,39.88l-2.69,0c-.13-3.16-1.83-5.29-4.68-6.86h.71c2.72,0,5.45,0,8.17,0,.55,0,.69.16.66.68,0,.7,0,1.4,0,2.11,0,.39-.07.56-.52.55-1.78,0-1.59-.23-1.61,1.66C49.28,38.6,49.26,39.24,49.25,39.88Z"/><path class="cls-3" d="M55.86,61.51c2.85,0,5.7,0,8.56,0,.57,0,.66.22.65.71s0,.77-.66.77q-8.62,0-17.24,0c-.66,0-.64-.31-.65-.77s0-.77.65-.77c2.89,0,5.79,0,8.69,0Z"/><path class="cls-3" d="M62.36,63.87a2.92,2.92,0,0,1-2.54,1.43c-4.17-.08-8.34,0-12.51,0-.25,0-.64.17-.73-.18a3.16,3.16,0,0,1,0-1.14c0-.16.24-.13.39-.13H62.36Z"/><path class="cls-3" d="M37.72,60.67H30.45c-.38,0-.69,0-.68-.54s.21-.58.65-.58q7.34,0,14.67,0c.4,0,.61.05.62.54s-.21.58-.65.58C42.61,60.66,40.17,60.67,37.72,60.67Z"/><path class="cls-5" d="M45.61,48.74v4C44.21,51.88,42.9,51,41.52,50l2.75-1.82c0,.36,0,.72,0,1.07s.14.39.39.22S45.28,49,45.61,48.74Z"/><path class="cls-3" d="M56.65,33l-.91,3.28c-2,0-1.53.36-1.6-1.69A5.29,5.29,0,0,0,54.69,33Z"/><path class="cls-5" d="M45.61,48.74c-.32.23-.64.48-1,.7s-.4.08-.39-.22,0-.72,0-1.07l1-.74c.27-.19.37-.1.36.21S45.62,48.37,45.61,48.74Z"/><path class="cls-8" d="M54.69,33a5.29,5.29,0,0,1-.55,1.59c0-.38,0-.75,0-1.13S54.31,32.92,54.69,33Z"/><path class="cls-5" d="M64.65,14.53a3.87,3.87,0,0,0,1.28,1.26,5.1,5.1,0,0,0-1.3,1.28,4.5,4.5,0,0,0-1.26-1.27A4.1,4.1,0,0,0,64.65,14.53Z"/><path class="cls-5" d="M11.53,61.15c.23-.2.45-.37.64-.56s.36-.41.56-.64a4.55,4.55,0,0,0,1.19,1.2,5.24,5.24,0,0,0-1.2,1.2A7.31,7.31,0,0,0,11.53,61.15Z"/><path class="cls-5" d="M84.27,44.53a1.13,1.13,0,1,1,1.13-1.13A1.13,1.13,0,0,1,84.27,44.53Z"/><path class="cls-4" d="M74.53,58.87a.51.51,0,0,1,0,1,.48.48,0,0,1-.53-.5A.47.47,0,0,1,74.53,58.87Z"/><path class="cls-4" d="M48.54,59.89a.51.51,0,0,1-.49-.54.44.44,0,0,1,.47-.48.47.47,0,0,1,.54.49C49.07,59.67,48.86,59.85,48.54,59.89Z"/><path class="cls-4" d="M61.55,59.89c-.3,0-.52-.2-.53-.51a.47.47,0,0,1,.52-.51.44.44,0,0,1,.49.46A.51.51,0,0,1,61.55,59.89Z"/><path class="cls-4" d="M52.7,40.41a.5.5,0,0,1-.55-.5.49.49,0,0,1,.55-.56.48.48,0,0,1,.51.53A.49.49,0,0,1,52.7,40.41Z"/></g></g></svg>